<mxfile host="app.diagrams.net" modified="2023-09-17T20:16:47.034Z" agent="Mozilla/5.0 (X11; Ubuntu; Linux x86_64; rv:109.0) Gecko/20100101 Firefox/117.0" etag="beHoCoo9wYZlICRAZTPi" version="21.7.2" type="device">
  <diagram name="Page-1" id="-c_-oMJQttTaPfrRJ-R8">
    <mxGraphModel dx="1395" dy="638" grid="1" gridSize="10" guides="1" tooltips="1" connect="1" arrows="1" fold="1" page="1" pageScale="1" pageWidth="827" pageHeight="1169" math="0" shadow="0">
      <root>
        <mxCell id="0" />
        <mxCell id="1" parent="0" />
        <mxCell id="u0zbnlWYYss0fcdmE5Vc-1" value="&lt;font style=&quot;font-size: 8px;&quot;&gt;Exchange account&lt;br style=&quot;font-size: 8px;&quot;&gt;&lt;/font&gt;" style="whiteSpace=wrap;html=1;aspect=fixed;fontSize=8;" vertex="1" parent="1">
          <mxGeometry x="360" y="120" width="40" height="40" as="geometry" />
        </mxCell>
        <mxCell id="u0zbnlWYYss0fcdmE5Vc-2" value="Napse Space" style="whiteSpace=wrap;html=1;aspect=fixed;fontSize=10;" vertex="1" parent="1">
          <mxGeometry x="360" y="200" width="40" height="40" as="geometry" />
        </mxCell>
        <mxCell id="u0zbnlWYYss0fcdmE5Vc-5" value="" style="endArrow=classic;html=1;rounded=0;exitX=0.5;exitY=0;exitDx=0;exitDy=0;entryX=0.5;entryY=1;entryDx=0;entryDy=0;" edge="1" parent="1" source="u0zbnlWYYss0fcdmE5Vc-2" target="u0zbnlWYYss0fcdmE5Vc-1">
          <mxGeometry relative="1" as="geometry">
            <mxPoint x="310" y="190" as="sourcePoint" />
            <mxPoint x="470" y="190" as="targetPoint" />
          </mxGeometry>
        </mxCell>
        <mxCell id="u0zbnlWYYss0fcdmE5Vc-7" value="&lt;div&gt;&lt;font style=&quot;font-size: 6px;&quot;&gt;1&lt;/font&gt;&lt;/div&gt;" style="edgeLabel;resizable=0;html=1;align=left;verticalAlign=bottom;" connectable="0" vertex="1" parent="u0zbnlWYYss0fcdmE5Vc-5">
          <mxGeometry x="-1" relative="1" as="geometry">
            <mxPoint x="10" as="offset" />
          </mxGeometry>
        </mxCell>
        <mxCell id="u0zbnlWYYss0fcdmE5Vc-8" value="âˆž" style="edgeLabel;resizable=0;html=1;align=right;verticalAlign=bottom;" connectable="0" vertex="1" parent="u0zbnlWYYss0fcdmE5Vc-5">
          <mxGeometry x="1" relative="1" as="geometry">
            <mxPoint x="20" y="20" as="offset" />
          </mxGeometry>
        </mxCell>
        <mxCell id="u0zbnlWYYss0fcdmE5Vc-9" value="exchange_account" style="text;html=1;strokeColor=none;fillColor=none;align=center;verticalAlign=middle;whiteSpace=wrap;rounded=0;fontSize=8;" vertex="1" parent="1">
          <mxGeometry x="302.5" y="160" width="75" height="10" as="geometry" />
        </mxCell>
        <mxCell id="u0zbnlWYYss0fcdmE5Vc-11" value="spaces" style="text;html=1;strokeColor=none;fillColor=none;align=center;verticalAlign=middle;whiteSpace=wrap;rounded=0;fontSize=8;" vertex="1" parent="1">
          <mxGeometry x="350" y="190" width="30" height="10" as="geometry" />
        </mxCell>
        <mxCell id="u0zbnlWYYss0fcdmE5Vc-12" value="Wallet" style="whiteSpace=wrap;html=1;aspect=fixed;fontSize=10;" vertex="1" parent="1">
          <mxGeometry x="160" y="320" width="40" height="40" as="geometry" />
        </mxCell>
        <mxCell id="u0zbnlWYYss0fcdmE5Vc-13" value="Space Wallet" style="whiteSpace=wrap;html=1;aspect=fixed;fontSize=10;" vertex="1" parent="1">
          <mxGeometry x="240" y="250" width="40" height="40" as="geometry" />
        </mxCell>
        <mxCell id="u0zbnlWYYss0fcdmE5Vc-14" value="Space Simulation Wallet" style="whiteSpace=wrap;html=1;aspect=fixed;fontSize=7;" vertex="1" parent="1">
          <mxGeometry x="240" y="300" width="40" height="40" as="geometry" />
        </mxCell>
        <mxCell id="u0zbnlWYYss0fcdmE5Vc-15" value="Connection Wallet" style="whiteSpace=wrap;html=1;aspect=fixed;fontSize=7;" vertex="1" parent="1">
          <mxGeometry x="240" y="400" width="40" height="40" as="geometry" />
        </mxCell>
        <mxCell id="u0zbnlWYYss0fcdmE5Vc-16" value="Order Wallet" style="whiteSpace=wrap;html=1;aspect=fixed;fontSize=10;" vertex="1" parent="1">
          <mxGeometry x="240" y="350" width="40" height="40" as="geometry" />
        </mxCell>
        <mxCell id="u0zbnlWYYss0fcdmE5Vc-17" value="" style="endArrow=classic;html=1;rounded=0;exitX=1;exitY=0.5;exitDx=0;exitDy=0;entryX=0;entryY=0.5;entryDx=0;entryDy=0;dashed=1;" edge="1" parent="1" source="u0zbnlWYYss0fcdmE5Vc-12" target="u0zbnlWYYss0fcdmE5Vc-13">
          <mxGeometry width="50" height="50" relative="1" as="geometry">
            <mxPoint x="200" y="360" as="sourcePoint" />
            <mxPoint x="250" y="310" as="targetPoint" />
            <Array as="points">
              <mxPoint x="220" y="340" />
              <mxPoint x="220" y="270" />
            </Array>
          </mxGeometry>
        </mxCell>
        <mxCell id="u0zbnlWYYss0fcdmE5Vc-19" value="" style="endArrow=classic;html=1;rounded=0;exitX=1;exitY=0.5;exitDx=0;exitDy=0;entryX=0;entryY=0.5;entryDx=0;entryDy=0;dashed=1;" edge="1" parent="1" target="u0zbnlWYYss0fcdmE5Vc-14">
          <mxGeometry width="50" height="50" relative="1" as="geometry">
            <mxPoint x="200" y="340" as="sourcePoint" />
            <mxPoint x="240" y="270" as="targetPoint" />
            <Array as="points">
              <mxPoint x="220" y="340" />
              <mxPoint x="220" y="320" />
            </Array>
          </mxGeometry>
        </mxCell>
        <mxCell id="u0zbnlWYYss0fcdmE5Vc-20" value="" style="endArrow=classic;html=1;rounded=0;exitX=1;exitY=0.5;exitDx=0;exitDy=0;entryX=0;entryY=0.5;entryDx=0;entryDy=0;dashed=1;" edge="1" parent="1" target="u0zbnlWYYss0fcdmE5Vc-15">
          <mxGeometry width="50" height="50" relative="1" as="geometry">
            <mxPoint x="200" y="340" as="sourcePoint" />
            <mxPoint x="240" y="320" as="targetPoint" />
            <Array as="points">
              <mxPoint x="220" y="340" />
              <mxPoint x="220" y="420" />
            </Array>
          </mxGeometry>
        </mxCell>
        <mxCell id="u0zbnlWYYss0fcdmE5Vc-21" value="" style="endArrow=classic;html=1;rounded=0;exitX=1;exitY=0.5;exitDx=0;exitDy=0;entryX=0;entryY=0.5;entryDx=0;entryDy=0;dashed=1;" edge="1" parent="1" target="u0zbnlWYYss0fcdmE5Vc-16">
          <mxGeometry width="50" height="50" relative="1" as="geometry">
            <mxPoint x="200" y="340" as="sourcePoint" />
            <mxPoint x="240" y="320" as="targetPoint" />
            <Array as="points">
              <mxPoint x="220" y="340" />
              <mxPoint x="220" y="370" />
            </Array>
          </mxGeometry>
        </mxCell>
        <mxCell id="u0zbnlWYYss0fcdmE5Vc-22" value="&lt;b&gt;inherits&lt;/b&gt;" style="edgeLabel;html=1;align=center;verticalAlign=middle;resizable=0;points=[];fontSize=7;" vertex="1" connectable="0" parent="u0zbnlWYYss0fcdmE5Vc-21">
          <mxGeometry x="-0.7833" relative="1" as="geometry">
            <mxPoint x="12" as="offset" />
          </mxGeometry>
        </mxCell>
        <mxCell id="u0zbnlWYYss0fcdmE5Vc-23" value="" style="endArrow=classic;html=1;rounded=0;exitX=0.5;exitY=0;exitDx=0;exitDy=0;entryX=0;entryY=0.5;entryDx=0;entryDy=0;" edge="1" parent="1" source="u0zbnlWYYss0fcdmE5Vc-13" target="u0zbnlWYYss0fcdmE5Vc-2">
          <mxGeometry relative="1" as="geometry">
            <mxPoint x="379.83" y="310" as="sourcePoint" />
            <mxPoint x="379.83" y="270" as="targetPoint" />
            <Array as="points">
              <mxPoint x="260" y="220" />
            </Array>
          </mxGeometry>
        </mxCell>
        <mxCell id="u0zbnlWYYss0fcdmE5Vc-24" value="&lt;div style=&quot;font-size: 10px;&quot;&gt;&lt;font style=&quot;font-size: 8px;&quot;&gt;1&lt;/font&gt;&lt;/div&gt;" style="edgeLabel;resizable=0;html=1;align=left;verticalAlign=bottom;" connectable="0" vertex="1" parent="u0zbnlWYYss0fcdmE5Vc-23">
          <mxGeometry x="-1" relative="1" as="geometry">
            <mxPoint as="offset" />
          </mxGeometry>
        </mxCell>
        <mxCell id="u0zbnlWYYss0fcdmE5Vc-25" value="&lt;div style=&quot;font-size: 8px;&quot;&gt;1&lt;/div&gt;" style="edgeLabel;resizable=0;html=1;align=right;verticalAlign=bottom;fontSize=8;" connectable="0" vertex="1" parent="u0zbnlWYYss0fcdmE5Vc-23">
          <mxGeometry x="1" relative="1" as="geometry">
            <mxPoint x="-10" as="offset" />
          </mxGeometry>
        </mxCell>
        <mxCell id="u0zbnlWYYss0fcdmE5Vc-26" value="owner" style="text;html=1;strokeColor=none;fillColor=none;align=center;verticalAlign=middle;whiteSpace=wrap;rounded=0;fontSize=8;" vertex="1" parent="1">
          <mxGeometry x="325" y="220" width="30" height="10" as="geometry" />
        </mxCell>
        <mxCell id="u0zbnlWYYss0fcdmE5Vc-27" value="wallet" style="text;html=1;strokeColor=none;fillColor=none;align=center;verticalAlign=middle;whiteSpace=wrap;rounded=0;fontSize=8;" vertex="1" parent="1">
          <mxGeometry x="230" y="240" width="30" height="10" as="geometry" />
        </mxCell>
        <mxCell id="u0zbnlWYYss0fcdmE5Vc-28" value="" style="endArrow=classic;html=1;rounded=0;exitX=1;exitY=0.5;exitDx=0;exitDy=0;entryX=0;entryY=0.5;entryDx=0;entryDy=0;" edge="1" parent="1" source="u0zbnlWYYss0fcdmE5Vc-14" target="u0zbnlWYYss0fcdmE5Vc-2">
          <mxGeometry relative="1" as="geometry">
            <mxPoint x="270" y="260" as="sourcePoint" />
            <mxPoint x="340" y="290" as="targetPoint" />
            <Array as="points">
              <mxPoint x="320" y="320" />
              <mxPoint x="320" y="220" />
            </Array>
          </mxGeometry>
        </mxCell>
        <mxCell id="u0zbnlWYYss0fcdmE5Vc-29" value="&lt;div style=&quot;font-size: 10px;&quot;&gt;&lt;font style=&quot;font-size: 8px;&quot;&gt;1&lt;/font&gt;&lt;/div&gt;" style="edgeLabel;resizable=0;html=1;align=left;verticalAlign=bottom;" connectable="0" vertex="1" parent="u0zbnlWYYss0fcdmE5Vc-28">
          <mxGeometry x="-1" relative="1" as="geometry">
            <mxPoint y="10" as="offset" />
          </mxGeometry>
        </mxCell>
        <mxCell id="u0zbnlWYYss0fcdmE5Vc-31" value="simulation wallet" style="text;html=1;strokeColor=none;fillColor=none;align=center;verticalAlign=middle;whiteSpace=wrap;rounded=0;fontSize=8;" vertex="1" parent="1">
          <mxGeometry x="290" y="330" width="30" height="10" as="geometry" />
        </mxCell>
        <mxCell id="u0zbnlWYYss0fcdmE5Vc-32" value="Credit" style="whiteSpace=wrap;html=1;aspect=fixed;fontSize=10;" vertex="1" parent="1">
          <mxGeometry x="40" y="240" width="40" height="40" as="geometry" />
        </mxCell>
        <mxCell id="u0zbnlWYYss0fcdmE5Vc-33" value="Debit" style="whiteSpace=wrap;html=1;aspect=fixed;fontSize=10;" vertex="1" parent="1">
          <mxGeometry x="40" y="320" width="40" height="40" as="geometry" />
        </mxCell>
        <mxCell id="u0zbnlWYYss0fcdmE5Vc-34" value="Transaction" style="whiteSpace=wrap;html=1;aspect=fixed;fontSize=7;" vertex="1" parent="1">
          <mxGeometry x="40" y="400" width="40" height="40" as="geometry" />
        </mxCell>
        <mxCell id="u0zbnlWYYss0fcdmE5Vc-35" value="" style="endArrow=classic;html=1;rounded=0;exitX=1;exitY=0.5;exitDx=0;exitDy=0;entryX=0;entryY=0.5;entryDx=0;entryDy=0;" edge="1" parent="1" source="u0zbnlWYYss0fcdmE5Vc-32" target="u0zbnlWYYss0fcdmE5Vc-12">
          <mxGeometry relative="1" as="geometry">
            <mxPoint x="130" y="230" as="sourcePoint" />
            <mxPoint x="130" y="190" as="targetPoint" />
            <Array as="points">
              <mxPoint x="120" y="260" />
              <mxPoint x="120" y="340" />
            </Array>
          </mxGeometry>
        </mxCell>
        <mxCell id="u0zbnlWYYss0fcdmE5Vc-36" value="&lt;div&gt;&lt;font style=&quot;font-size: 6px;&quot;&gt;1&lt;/font&gt;&lt;/div&gt;" style="edgeLabel;resizable=0;html=1;align=left;verticalAlign=bottom;" connectable="0" vertex="1" parent="u0zbnlWYYss0fcdmE5Vc-35">
          <mxGeometry x="-1" relative="1" as="geometry">
            <mxPoint y="10" as="offset" />
          </mxGeometry>
        </mxCell>
        <mxCell id="u0zbnlWYYss0fcdmE5Vc-37" value="âˆž" style="edgeLabel;resizable=0;html=1;align=right;verticalAlign=bottom;" connectable="0" vertex="1" parent="u0zbnlWYYss0fcdmE5Vc-35">
          <mxGeometry x="1" relative="1" as="geometry">
            <mxPoint x="-10" as="offset" />
          </mxGeometry>
        </mxCell>
        <mxCell id="u0zbnlWYYss0fcdmE5Vc-38" value="" style="endArrow=classic;html=1;rounded=0;exitX=1.067;exitY=0.508;exitDx=0;exitDy=0;exitPerimeter=0;" edge="1" parent="1" source="u0zbnlWYYss0fcdmE5Vc-33">
          <mxGeometry relative="1" as="geometry">
            <mxPoint x="100" y="340" as="sourcePoint" />
            <mxPoint x="160" y="340" as="targetPoint" />
            <Array as="points">
              <mxPoint x="140" y="340" />
            </Array>
          </mxGeometry>
        </mxCell>
        <mxCell id="u0zbnlWYYss0fcdmE5Vc-39" value="&lt;div&gt;&lt;font style=&quot;font-size: 6px;&quot;&gt;1&lt;/font&gt;&lt;/div&gt;" style="edgeLabel;resizable=0;html=1;align=left;verticalAlign=bottom;" connectable="0" vertex="1" parent="u0zbnlWYYss0fcdmE5Vc-38">
          <mxGeometry x="-1" relative="1" as="geometry">
            <mxPoint x="-3" y="5" as="offset" />
          </mxGeometry>
        </mxCell>
        <mxCell id="u0zbnlWYYss0fcdmE5Vc-41" value="" style="endArrow=classic;html=1;rounded=0;exitX=1;exitY=0.5;exitDx=0;exitDy=0;entryX=0;entryY=0.5;entryDx=0;entryDy=0;" edge="1" parent="1" target="u0zbnlWYYss0fcdmE5Vc-12">
          <mxGeometry relative="1" as="geometry">
            <mxPoint x="80" y="420" as="sourcePoint" />
            <mxPoint x="160" y="500" as="targetPoint" />
            <Array as="points">
              <mxPoint x="120" y="420" />
              <mxPoint x="120" y="340" />
            </Array>
          </mxGeometry>
        </mxCell>
        <mxCell id="u0zbnlWYYss0fcdmE5Vc-42" value="&lt;div&gt;&lt;font style=&quot;font-size: 6px;&quot;&gt;1&lt;/font&gt;&lt;/div&gt;" style="edgeLabel;resizable=0;html=1;align=left;verticalAlign=bottom;" connectable="0" vertex="1" parent="u0zbnlWYYss0fcdmE5Vc-41">
          <mxGeometry x="-1" relative="1" as="geometry">
            <mxPoint y="10" as="offset" />
          </mxGeometry>
        </mxCell>
        <mxCell id="u0zbnlWYYss0fcdmE5Vc-43" value="wallet" style="text;html=1;strokeColor=none;fillColor=none;align=center;verticalAlign=middle;whiteSpace=wrap;rounded=0;fontSize=8;" vertex="1" parent="1">
          <mxGeometry x="130" y="350" width="30" height="10" as="geometry" />
        </mxCell>
        <mxCell id="u0zbnlWYYss0fcdmE5Vc-44" value="debits" style="text;html=1;strokeColor=none;fillColor=none;align=center;verticalAlign=middle;whiteSpace=wrap;rounded=0;fontSize=8;" vertex="1" parent="1">
          <mxGeometry x="80" y="350" width="30" height="10" as="geometry" />
        </mxCell>
        <mxCell id="u0zbnlWYYss0fcdmE5Vc-45" value="credits" style="text;html=1;strokeColor=none;fillColor=none;align=center;verticalAlign=middle;whiteSpace=wrap;rounded=0;fontSize=8;" vertex="1" parent="1">
          <mxGeometry x="80" y="265" width="30" height="10" as="geometry" />
        </mxCell>
        <mxCell id="u0zbnlWYYss0fcdmE5Vc-46" value="Currency" style="whiteSpace=wrap;html=1;aspect=fixed;fontSize=7;" vertex="1" parent="1">
          <mxGeometry x="160" y="200" width="40" height="40" as="geometry" />
        </mxCell>
        <mxCell id="u0zbnlWYYss0fcdmE5Vc-47" value="" style="endArrow=classic;html=1;rounded=0;exitX=0.5;exitY=1;exitDx=0;exitDy=0;entryX=0.5;entryY=0;entryDx=0;entryDy=0;" edge="1" parent="1" source="u0zbnlWYYss0fcdmE5Vc-46" target="u0zbnlWYYss0fcdmE5Vc-12">
          <mxGeometry relative="1" as="geometry">
            <mxPoint x="220" y="200" as="sourcePoint" />
            <mxPoint x="150" y="270" as="targetPoint" />
          </mxGeometry>
        </mxCell>
        <mxCell id="u0zbnlWYYss0fcdmE5Vc-48" value="&lt;div&gt;&lt;font style=&quot;font-size: 6px;&quot;&gt;1&lt;/font&gt;&lt;/div&gt;" style="edgeLabel;resizable=0;html=1;align=left;verticalAlign=bottom;" connectable="0" vertex="1" parent="u0zbnlWYYss0fcdmE5Vc-47">
          <mxGeometry x="-1" relative="1" as="geometry">
            <mxPoint x="-10" y="20" as="offset" />
          </mxGeometry>
        </mxCell>
        <mxCell id="u0zbnlWYYss0fcdmE5Vc-49" value="âˆž" style="edgeLabel;resizable=0;html=1;align=right;verticalAlign=bottom;" connectable="0" vertex="1" parent="u0zbnlWYYss0fcdmE5Vc-47">
          <mxGeometry x="1" relative="1" as="geometry">
            <mxPoint x="-10" y="-1" as="offset" />
          </mxGeometry>
        </mxCell>
        <mxCell id="u0zbnlWYYss0fcdmE5Vc-50" value="Connection" style="whiteSpace=wrap;html=1;aspect=fixed;fontSize=7;" vertex="1" parent="1">
          <mxGeometry x="320" y="480" width="40" height="40" as="geometry" />
        </mxCell>
        <mxCell id="u0zbnlWYYss0fcdmE5Vc-51" value="" style="endArrow=classic;html=1;rounded=0;exitX=0.5;exitY=1;exitDx=0;exitDy=0;entryX=0;entryY=0.25;entryDx=0;entryDy=0;" edge="1" parent="1" source="u0zbnlWYYss0fcdmE5Vc-15" target="u0zbnlWYYss0fcdmE5Vc-50">
          <mxGeometry relative="1" as="geometry">
            <mxPoint x="240" y="500" as="sourcePoint" />
            <mxPoint x="460" y="410" as="targetPoint" />
            <Array as="points">
              <mxPoint x="260" y="490" />
            </Array>
          </mxGeometry>
        </mxCell>
        <mxCell id="u0zbnlWYYss0fcdmE5Vc-52" value="&lt;div style=&quot;font-size: 10px;&quot;&gt;&lt;font style=&quot;font-size: 8px;&quot;&gt;1&lt;/font&gt;&lt;/div&gt;" style="edgeLabel;resizable=0;html=1;align=left;verticalAlign=bottom;" connectable="0" vertex="1" parent="u0zbnlWYYss0fcdmE5Vc-51">
          <mxGeometry x="-1" relative="1" as="geometry">
            <mxPoint y="20" as="offset" />
          </mxGeometry>
        </mxCell>
        <mxCell id="u0zbnlWYYss0fcdmE5Vc-53" value="&lt;div style=&quot;font-size: 8px;&quot;&gt;1&lt;/div&gt;" style="edgeLabel;resizable=0;html=1;align=right;verticalAlign=bottom;fontSize=8;" connectable="0" vertex="1" parent="u0zbnlWYYss0fcdmE5Vc-51">
          <mxGeometry x="1" relative="1" as="geometry">
            <mxPoint x="-10" y="10" as="offset" />
          </mxGeometry>
        </mxCell>
        <mxCell id="u0zbnlWYYss0fcdmE5Vc-54" value="wallet" style="text;html=1;strokeColor=none;fillColor=none;align=center;verticalAlign=middle;whiteSpace=wrap;rounded=0;fontSize=8;" vertex="1" parent="1">
          <mxGeometry x="230" y="445" width="30" height="10" as="geometry" />
        </mxCell>
        <mxCell id="u0zbnlWYYss0fcdmE5Vc-55" value="owner" style="text;html=1;strokeColor=none;fillColor=none;align=center;verticalAlign=middle;whiteSpace=wrap;rounded=0;fontSize=8;" vertex="1" parent="1">
          <mxGeometry x="367.5" y="380" width="30" height="10" as="geometry" />
        </mxCell>
        <mxCell id="u0zbnlWYYss0fcdmE5Vc-56" value="wallet" style="text;html=1;strokeColor=none;fillColor=none;align=center;verticalAlign=middle;whiteSpace=wrap;rounded=0;fontSize=8;" vertex="1" parent="1">
          <mxGeometry x="180" y="310" width="30" height="10" as="geometry" />
        </mxCell>
        <mxCell id="u0zbnlWYYss0fcdmE5Vc-57" value="currencies" style="text;html=1;strokeColor=none;fillColor=none;align=center;verticalAlign=middle;whiteSpace=wrap;rounded=0;fontSize=8;" vertex="1" parent="1">
          <mxGeometry x="190" y="240" width="30" height="10" as="geometry" />
        </mxCell>
        <mxCell id="u0zbnlWYYss0fcdmE5Vc-59" value="Connection Specific Args" style="whiteSpace=wrap;html=1;aspect=fixed;fontSize=7;" vertex="1" parent="1">
          <mxGeometry x="320" y="560" width="40" height="40" as="geometry" />
        </mxCell>
        <mxCell id="u0zbnlWYYss0fcdmE5Vc-60" value="" style="endArrow=classic;html=1;rounded=0;entryX=0;entryY=0;entryDx=0;entryDy=0;" edge="1" parent="1" target="u0zbnlWYYss0fcdmE5Vc-77">
          <mxGeometry relative="1" as="geometry">
            <mxPoint x="340" y="560" as="sourcePoint" />
            <mxPoint x="450" y="500" as="targetPoint" />
          </mxGeometry>
        </mxCell>
        <mxCell id="u0zbnlWYYss0fcdmE5Vc-61" value="&lt;div&gt;&lt;font style=&quot;font-size: 6px;&quot;&gt;1&lt;/font&gt;&lt;/div&gt;" style="edgeLabel;resizable=0;html=1;align=left;verticalAlign=bottom;" connectable="0" vertex="1" parent="u0zbnlWYYss0fcdmE5Vc-60">
          <mxGeometry x="-1" relative="1" as="geometry">
            <mxPoint x="-10" as="offset" />
          </mxGeometry>
        </mxCell>
        <mxCell id="u0zbnlWYYss0fcdmE5Vc-62" value="âˆž" style="edgeLabel;resizable=0;html=1;align=right;verticalAlign=bottom;" connectable="0" vertex="1" parent="u0zbnlWYYss0fcdmE5Vc-60">
          <mxGeometry x="1" relative="1" as="geometry">
            <mxPoint x="-10" y="20" as="offset" />
          </mxGeometry>
        </mxCell>
        <mxCell id="u0zbnlWYYss0fcdmE5Vc-63" value="connection" style="text;html=1;strokeColor=none;fillColor=none;align=center;verticalAlign=middle;whiteSpace=wrap;rounded=0;fontSize=8;" vertex="1" parent="1">
          <mxGeometry x="351" y="470" width="46" height="10" as="geometry" />
        </mxCell>
        <mxCell id="u0zbnlWYYss0fcdmE5Vc-65" value="specific_args" style="text;html=1;strokeColor=none;fillColor=none;align=center;verticalAlign=middle;whiteSpace=wrap;rounded=0;fontSize=8;" vertex="1" parent="1">
          <mxGeometry x="342" y="550" width="46" height="10" as="geometry" />
        </mxCell>
        <mxCell id="u0zbnlWYYss0fcdmE5Vc-68" value="Order" style="whiteSpace=wrap;html=1;aspect=fixed;fontSize=10;" vertex="1" parent="1">
          <mxGeometry x="360" y="350" width="40" height="40" as="geometry" />
        </mxCell>
        <mxCell id="u0zbnlWYYss0fcdmE5Vc-69" value="" style="endArrow=classic;html=1;rounded=0;exitX=1;exitY=0.5;exitDx=0;exitDy=0;entryX=0;entryY=0.5;entryDx=0;entryDy=0;" edge="1" parent="1" source="u0zbnlWYYss0fcdmE5Vc-16" target="u0zbnlWYYss0fcdmE5Vc-68">
          <mxGeometry relative="1" as="geometry">
            <mxPoint x="300" y="350" as="sourcePoint" />
            <mxPoint x="410" y="290" as="targetPoint" />
            <Array as="points">
              <mxPoint x="300" y="370" />
            </Array>
          </mxGeometry>
        </mxCell>
        <mxCell id="u0zbnlWYYss0fcdmE5Vc-70" value="&lt;div style=&quot;font-size: 10px;&quot;&gt;&lt;font style=&quot;font-size: 8px;&quot;&gt;1&lt;/font&gt;&lt;/div&gt;" style="edgeLabel;resizable=0;html=1;align=left;verticalAlign=bottom;" connectable="0" vertex="1" parent="u0zbnlWYYss0fcdmE5Vc-69">
          <mxGeometry x="-1" relative="1" as="geometry">
            <mxPoint y="20" as="offset" />
          </mxGeometry>
        </mxCell>
        <mxCell id="u0zbnlWYYss0fcdmE5Vc-71" value="&lt;div style=&quot;font-size: 8px;&quot;&gt;1&lt;/div&gt;" style="edgeLabel;resizable=0;html=1;align=right;verticalAlign=bottom;fontSize=8;" connectable="0" vertex="1" parent="u0zbnlWYYss0fcdmE5Vc-69">
          <mxGeometry x="1" relative="1" as="geometry">
            <mxPoint as="offset" />
          </mxGeometry>
        </mxCell>
        <mxCell id="u0zbnlWYYss0fcdmE5Vc-72" value="wallet" style="text;html=1;strokeColor=none;fillColor=none;align=center;verticalAlign=middle;whiteSpace=wrap;rounded=0;fontSize=8;" vertex="1" parent="1">
          <mxGeometry x="280" y="360" width="30" height="10" as="geometry" />
        </mxCell>
        <mxCell id="u0zbnlWYYss0fcdmE5Vc-73" value="owner" style="text;html=1;strokeColor=none;fillColor=none;align=center;verticalAlign=middle;whiteSpace=wrap;rounded=0;fontSize=8;" vertex="1" parent="1">
          <mxGeometry x="280" y="480" width="30" height="10" as="geometry" />
        </mxCell>
        <mxCell id="u0zbnlWYYss0fcdmE5Vc-74" value="" style="endArrow=classic;html=1;rounded=0;entryX=0.5;entryY=0;entryDx=0;entryDy=0;" edge="1" parent="1" target="u0zbnlWYYss0fcdmE5Vc-50">
          <mxGeometry relative="1" as="geometry">
            <mxPoint x="380" y="390" as="sourcePoint" />
            <mxPoint x="150" y="460" as="targetPoint" />
            <Array as="points">
              <mxPoint x="380" y="420" />
              <mxPoint x="340" y="420" />
            </Array>
          </mxGeometry>
        </mxCell>
        <mxCell id="u0zbnlWYYss0fcdmE5Vc-75" value="&lt;div&gt;&lt;font style=&quot;font-size: 6px;&quot;&gt;1&lt;/font&gt;&lt;/div&gt;" style="edgeLabel;resizable=0;html=1;align=left;verticalAlign=bottom;" connectable="0" vertex="1" parent="u0zbnlWYYss0fcdmE5Vc-74">
          <mxGeometry x="-1" relative="1" as="geometry">
            <mxPoint x="-10" y="20" as="offset" />
          </mxGeometry>
        </mxCell>
        <mxCell id="u0zbnlWYYss0fcdmE5Vc-76" value="âˆž" style="edgeLabel;resizable=0;html=1;align=right;verticalAlign=bottom;" connectable="0" vertex="1" parent="u0zbnlWYYss0fcdmE5Vc-74">
          <mxGeometry x="1" relative="1" as="geometry">
            <mxPoint x="-10" as="offset" />
          </mxGeometry>
        </mxCell>
        <mxCell id="u0zbnlWYYss0fcdmE5Vc-77" value="connection" style="text;html=1;strokeColor=none;fillColor=none;align=center;verticalAlign=middle;whiteSpace=wrap;rounded=0;fontSize=8;" vertex="1" parent="1">
          <mxGeometry x="340" y="520" width="46" height="10" as="geometry" />
        </mxCell>
        <mxCell id="u0zbnlWYYss0fcdmE5Vc-80" value="Modifications" style="whiteSpace=wrap;html=1;aspect=fixed;fontSize=6;" vertex="1" parent="1">
          <mxGeometry x="360" y="260" width="40" height="40" as="geometry" />
        </mxCell>
        <mxCell id="u0zbnlWYYss0fcdmE5Vc-81" value="" style="endArrow=classic;html=1;rounded=0;exitX=0.5;exitY=1;exitDx=0;exitDy=0;" edge="1" parent="1" source="u0zbnlWYYss0fcdmE5Vc-80">
          <mxGeometry relative="1" as="geometry">
            <mxPoint x="380" y="320" as="sourcePoint" />
            <mxPoint x="380" y="350" as="targetPoint" />
          </mxGeometry>
        </mxCell>
        <mxCell id="u0zbnlWYYss0fcdmE5Vc-82" value="&lt;div&gt;&lt;font style=&quot;font-size: 6px;&quot;&gt;1&lt;/font&gt;&lt;/div&gt;" style="edgeLabel;resizable=0;html=1;align=left;verticalAlign=bottom;" connectable="0" vertex="1" parent="u0zbnlWYYss0fcdmE5Vc-81">
          <mxGeometry x="-1" relative="1" as="geometry">
            <mxPoint x="-10" y="20" as="offset" />
          </mxGeometry>
        </mxCell>
        <mxCell id="u0zbnlWYYss0fcdmE5Vc-83" value="âˆž" style="edgeLabel;resizable=0;html=1;align=right;verticalAlign=bottom;" connectable="0" vertex="1" parent="u0zbnlWYYss0fcdmE5Vc-81">
          <mxGeometry x="1" relative="1" as="geometry">
            <mxPoint x="-10" as="offset" />
          </mxGeometry>
        </mxCell>
        <mxCell id="u0zbnlWYYss0fcdmE5Vc-84" value="order" style="text;html=1;strokeColor=none;fillColor=none;align=center;verticalAlign=middle;whiteSpace=wrap;rounded=0;fontSize=8;" vertex="1" parent="1">
          <mxGeometry x="384" y="335" width="30" height="10" as="geometry" />
        </mxCell>
        <mxCell id="u0zbnlWYYss0fcdmE5Vc-85" value="modifications" style="text;html=1;strokeColor=none;fillColor=none;align=center;verticalAlign=middle;whiteSpace=wrap;rounded=0;fontSize=8;" vertex="1" parent="1">
          <mxGeometry x="386" y="300" width="46" height="10" as="geometry" />
        </mxCell>
        <mxCell id="u0zbnlWYYss0fcdmE5Vc-86" value="Order Batch" style="whiteSpace=wrap;html=1;aspect=fixed;fontSize=10;" vertex="1" parent="1">
          <mxGeometry x="460" y="350" width="40" height="40" as="geometry" />
        </mxCell>
        <mxCell id="u0zbnlWYYss0fcdmE5Vc-87" value="" style="endArrow=classic;html=1;rounded=0;exitX=1.08;exitY=0.49;exitDx=0;exitDy=0;entryX=0;entryY=0.5;entryDx=0;entryDy=0;exitPerimeter=0;" edge="1" parent="1" source="u0zbnlWYYss0fcdmE5Vc-68" target="u0zbnlWYYss0fcdmE5Vc-86">
          <mxGeometry relative="1" as="geometry">
            <mxPoint x="480" y="390" as="sourcePoint" />
            <mxPoint x="480" y="350" as="targetPoint" />
          </mxGeometry>
        </mxCell>
        <mxCell id="u0zbnlWYYss0fcdmE5Vc-88" value="&lt;div&gt;&lt;font style=&quot;font-size: 6px;&quot;&gt;1&lt;/font&gt;&lt;/div&gt;" style="edgeLabel;resizable=0;html=1;align=left;verticalAlign=bottom;" connectable="0" vertex="1" parent="u0zbnlWYYss0fcdmE5Vc-87">
          <mxGeometry x="-1" relative="1" as="geometry">
            <mxPoint x="-3" y="10" as="offset" />
          </mxGeometry>
        </mxCell>
        <mxCell id="u0zbnlWYYss0fcdmE5Vc-89" value="âˆž" style="edgeLabel;resizable=0;html=1;align=right;verticalAlign=bottom;" connectable="0" vertex="1" parent="u0zbnlWYYss0fcdmE5Vc-87">
          <mxGeometry x="1" relative="1" as="geometry">
            <mxPoint x="-10" y="20" as="offset" />
          </mxGeometry>
        </mxCell>
        <mxCell id="u0zbnlWYYss0fcdmE5Vc-90" value="orders" style="text;html=1;strokeColor=none;fillColor=none;align=center;verticalAlign=middle;whiteSpace=wrap;rounded=0;fontSize=8;" vertex="1" parent="1">
          <mxGeometry x="380" y="400" width="30" height="10" as="geometry" />
        </mxCell>
        <mxCell id="u0zbnlWYYss0fcdmE5Vc-91" value="orders" style="text;html=1;strokeColor=none;fillColor=none;align=center;verticalAlign=middle;whiteSpace=wrap;rounded=0;fontSize=8;" vertex="1" parent="1">
          <mxGeometry x="397.5" y="355" width="30" height="10" as="geometry" />
        </mxCell>
        <mxCell id="u0zbnlWYYss0fcdmE5Vc-94" value="owner" style="text;html=1;strokeColor=none;fillColor=none;align=center;verticalAlign=middle;whiteSpace=wrap;rounded=0;fontSize=8;" vertex="1" parent="1">
          <mxGeometry x="321" y="360" width="30" height="10" as="geometry" />
        </mxCell>
        <mxCell id="u0zbnlWYYss0fcdmE5Vc-95" value="" style="endArrow=classic;html=1;rounded=0;entryX=0.5;entryY=1;entryDx=0;entryDy=0;exitX=0;exitY=0.75;exitDx=0;exitDy=0;" edge="1" parent="1" source="u0zbnlWYYss0fcdmE5Vc-50" target="u0zbnlWYYss0fcdmE5Vc-12">
          <mxGeometry relative="1" as="geometry">
            <mxPoint x="160" y="530" as="sourcePoint" />
            <mxPoint x="160" y="490" as="targetPoint" />
            <Array as="points">
              <mxPoint x="180" y="510" />
            </Array>
          </mxGeometry>
        </mxCell>
        <mxCell id="u0zbnlWYYss0fcdmE5Vc-96" value="&lt;div&gt;&lt;font style=&quot;font-size: 6px;&quot;&gt;1&lt;/font&gt;&lt;/div&gt;" style="edgeLabel;resizable=0;html=1;align=left;verticalAlign=bottom;" connectable="0" vertex="1" parent="u0zbnlWYYss0fcdmE5Vc-95">
          <mxGeometry x="-1" relative="1" as="geometry">
            <mxPoint x="-10" y="10" as="offset" />
          </mxGeometry>
        </mxCell>
        <mxCell id="u0zbnlWYYss0fcdmE5Vc-97" value="âˆž" style="edgeLabel;resizable=0;html=1;align=right;verticalAlign=bottom;" connectable="0" vertex="1" parent="u0zbnlWYYss0fcdmE5Vc-95">
          <mxGeometry x="1" relative="1" as="geometry">
            <mxPoint x="10" y="30" as="offset" />
          </mxGeometry>
        </mxCell>
        <mxCell id="u0zbnlWYYss0fcdmE5Vc-99" value="connections" style="text;html=1;strokeColor=none;fillColor=none;align=center;verticalAlign=middle;whiteSpace=wrap;rounded=0;fontSize=8;" vertex="1" parent="1">
          <mxGeometry x="264" y="510" width="46" height="10" as="geometry" />
        </mxCell>
        <mxCell id="u0zbnlWYYss0fcdmE5Vc-104" value="owner" style="text;html=1;strokeColor=none;fillColor=none;align=center;verticalAlign=middle;whiteSpace=wrap;rounded=0;fontSize=8;" vertex="1" parent="1">
          <mxGeometry x="150" y="365" width="30" height="10" as="geometry" />
        </mxCell>
        <mxCell id="u0zbnlWYYss0fcdmE5Vc-106" value="Controller" style="whiteSpace=wrap;html=1;aspect=fixed;fontSize=8;" vertex="1" parent="1">
          <mxGeometry x="440" y="200" width="40" height="40" as="geometry" />
        </mxCell>
        <mxCell id="u0zbnlWYYss0fcdmE5Vc-108" value="" style="endArrow=classic;html=1;rounded=0;exitX=0.5;exitY=0;exitDx=0;exitDy=0;entryX=0.5;entryY=1;entryDx=0;entryDy=0;" edge="1" parent="1" source="u0zbnlWYYss0fcdmE5Vc-86" target="u0zbnlWYYss0fcdmE5Vc-106">
          <mxGeometry relative="1" as="geometry">
            <mxPoint x="413" y="380" as="sourcePoint" />
            <mxPoint x="490" y="380" as="targetPoint" />
            <Array as="points">
              <mxPoint x="480" y="280" />
              <mxPoint x="460" y="280" />
            </Array>
          </mxGeometry>
        </mxCell>
        <mxCell id="u0zbnlWYYss0fcdmE5Vc-109" value="&lt;div&gt;&lt;font style=&quot;font-size: 6px;&quot;&gt;1&lt;/font&gt;&lt;/div&gt;" style="edgeLabel;resizable=0;html=1;align=left;verticalAlign=bottom;" connectable="0" vertex="1" parent="u0zbnlWYYss0fcdmE5Vc-108">
          <mxGeometry x="-1" relative="1" as="geometry">
            <mxPoint x="-10" y="-10" as="offset" />
          </mxGeometry>
        </mxCell>
        <mxCell id="u0zbnlWYYss0fcdmE5Vc-110" value="âˆž" style="edgeLabel;resizable=0;html=1;align=right;verticalAlign=bottom;" connectable="0" vertex="1" parent="u0zbnlWYYss0fcdmE5Vc-108">
          <mxGeometry x="1" relative="1" as="geometry">
            <mxPoint y="30" as="offset" />
          </mxGeometry>
        </mxCell>
        <mxCell id="u0zbnlWYYss0fcdmE5Vc-112" value="order_batches" style="text;html=1;strokeColor=none;fillColor=none;align=center;verticalAlign=middle;whiteSpace=wrap;rounded=0;fontSize=8;" vertex="1" parent="1">
          <mxGeometry x="480" y="335" width="60" height="10" as="geometry" />
        </mxCell>
        <mxCell id="u0zbnlWYYss0fcdmE5Vc-113" value="controller" style="text;html=1;strokeColor=none;fillColor=none;align=center;verticalAlign=middle;whiteSpace=wrap;rounded=0;fontSize=8;" vertex="1" parent="1">
          <mxGeometry x="470" y="240" width="40" height="10" as="geometry" />
        </mxCell>
        <mxCell id="u0zbnlWYYss0fcdmE5Vc-114" value="" style="endArrow=classic;html=1;rounded=0;exitX=0.5;exitY=0;exitDx=0;exitDy=0;entryX=1;entryY=0.5;entryDx=0;entryDy=0;" edge="1" parent="1" source="u0zbnlWYYss0fcdmE5Vc-106" target="u0zbnlWYYss0fcdmE5Vc-1">
          <mxGeometry relative="1" as="geometry">
            <mxPoint x="470" y="210" as="sourcePoint" />
            <mxPoint x="547" y="210" as="targetPoint" />
            <Array as="points">
              <mxPoint x="460" y="140" />
            </Array>
          </mxGeometry>
        </mxCell>
        <mxCell id="u0zbnlWYYss0fcdmE5Vc-115" value="&lt;div&gt;&lt;font style=&quot;font-size: 6px;&quot;&gt;1&lt;/font&gt;&lt;/div&gt;" style="edgeLabel;resizable=0;html=1;align=left;verticalAlign=bottom;" connectable="0" vertex="1" parent="u0zbnlWYYss0fcdmE5Vc-114">
          <mxGeometry x="-1" relative="1" as="geometry">
            <mxPoint x="-10" as="offset" />
          </mxGeometry>
        </mxCell>
        <mxCell id="u0zbnlWYYss0fcdmE5Vc-116" value="âˆž" style="edgeLabel;resizable=0;html=1;align=right;verticalAlign=bottom;" connectable="0" vertex="1" parent="u0zbnlWYYss0fcdmE5Vc-114">
          <mxGeometry x="1" relative="1" as="geometry">
            <mxPoint x="20" y="10" as="offset" />
          </mxGeometry>
        </mxCell>
        <mxCell id="u0zbnlWYYss0fcdmE5Vc-117" value="controllers" style="text;html=1;strokeColor=none;fillColor=none;align=center;verticalAlign=middle;whiteSpace=wrap;rounded=0;fontSize=8;" vertex="1" parent="1">
          <mxGeometry x="462" y="190" width="40" height="10" as="geometry" />
        </mxCell>
        <mxCell id="u0zbnlWYYss0fcdmE5Vc-119" value="exchange_account" style="text;html=1;strokeColor=none;fillColor=none;align=center;verticalAlign=middle;whiteSpace=wrap;rounded=0;fontSize=8;" vertex="1" parent="1">
          <mxGeometry x="400" y="120" width="75" height="10" as="geometry" />
        </mxCell>
        <mxCell id="u0zbnlWYYss0fcdmE5Vc-120" value="batch" style="text;html=1;strokeColor=none;fillColor=none;align=center;verticalAlign=middle;whiteSpace=wrap;rounded=0;fontSize=8;" vertex="1" parent="1">
          <mxGeometry x="432" y="355" width="30" height="10" as="geometry" />
        </mxCell>
        <mxCell id="u0zbnlWYYss0fcdmE5Vc-121" value="Fleet" style="whiteSpace=wrap;html=1;aspect=fixed;fontSize=10;" vertex="1" parent="1">
          <mxGeometry x="560" y="120" width="40" height="40" as="geometry" />
        </mxCell>
        <mxCell id="u0zbnlWYYss0fcdmE5Vc-122" value="" style="endArrow=classic;html=1;rounded=0;exitX=0;exitY=0.5;exitDx=0;exitDy=0;entryX=1;entryY=0.5;entryDx=0;entryDy=0;" edge="1" parent="1" source="u0zbnlWYYss0fcdmE5Vc-121" target="u0zbnlWYYss0fcdmE5Vc-1">
          <mxGeometry relative="1" as="geometry">
            <mxPoint x="470" y="210" as="sourcePoint" />
            <mxPoint x="410" y="150" as="targetPoint" />
            <Array as="points">
              <mxPoint x="550" y="140" />
              <mxPoint x="460" y="140" />
            </Array>
          </mxGeometry>
        </mxCell>
        <mxCell id="u0zbnlWYYss0fcdmE5Vc-123" value="&lt;div&gt;&lt;font style=&quot;font-size: 6px;&quot;&gt;1&lt;/font&gt;&lt;/div&gt;" style="edgeLabel;resizable=0;html=1;align=left;verticalAlign=bottom;" connectable="0" vertex="1" parent="u0zbnlWYYss0fcdmE5Vc-122">
          <mxGeometry x="-1" relative="1" as="geometry">
            <mxPoint x="-20" y="10" as="offset" />
          </mxGeometry>
        </mxCell>
        <mxCell id="u0zbnlWYYss0fcdmE5Vc-124" value="âˆž" style="edgeLabel;resizable=0;html=1;align=right;verticalAlign=bottom;" connectable="0" vertex="1" parent="u0zbnlWYYss0fcdmE5Vc-122">
          <mxGeometry x="1" relative="1" as="geometry">
            <mxPoint x="20" y="10" as="offset" />
          </mxGeometry>
        </mxCell>
        <mxCell id="u0zbnlWYYss0fcdmE5Vc-127" value="fleets" style="text;html=1;strokeColor=none;fillColor=none;align=center;verticalAlign=middle;whiteSpace=wrap;rounded=0;fontSize=8;" vertex="1" parent="1">
          <mxGeometry x="530" y="120" width="30" height="10" as="geometry" />
        </mxCell>
        <mxCell id="u0zbnlWYYss0fcdmE5Vc-129" value="Cluster" style="whiteSpace=wrap;html=1;aspect=fixed;fontSize=10;" vertex="1" parent="1">
          <mxGeometry x="560" y="200" width="40" height="40" as="geometry" />
        </mxCell>
        <mxCell id="u0zbnlWYYss0fcdmE5Vc-130" value="" style="endArrow=classic;html=1;rounded=0;exitX=0.5;exitY=0;exitDx=0;exitDy=0;entryX=0.5;entryY=1;entryDx=0;entryDy=0;" edge="1" parent="1" source="u0zbnlWYYss0fcdmE5Vc-129" target="u0zbnlWYYss0fcdmE5Vc-121">
          <mxGeometry relative="1" as="geometry">
            <mxPoint x="680" y="245" as="sourcePoint" />
            <mxPoint x="680" y="295" as="targetPoint" />
          </mxGeometry>
        </mxCell>
        <mxCell id="u0zbnlWYYss0fcdmE5Vc-131" value="&lt;div&gt;&lt;font style=&quot;font-size: 6px;&quot;&gt;1&lt;/font&gt;&lt;/div&gt;" style="edgeLabel;resizable=0;html=1;align=left;verticalAlign=bottom;" connectable="0" vertex="1" parent="u0zbnlWYYss0fcdmE5Vc-130">
          <mxGeometry x="-1" relative="1" as="geometry">
            <mxPoint x="-10" as="offset" />
          </mxGeometry>
        </mxCell>
        <mxCell id="u0zbnlWYYss0fcdmE5Vc-132" value="âˆž" style="edgeLabel;resizable=0;html=1;align=right;verticalAlign=bottom;" connectable="0" vertex="1" parent="u0zbnlWYYss0fcdmE5Vc-130">
          <mxGeometry x="1" relative="1" as="geometry">
            <mxPoint x="-10" y="20" as="offset" />
          </mxGeometry>
        </mxCell>
        <mxCell id="u0zbnlWYYss0fcdmE5Vc-133" value="fleet" style="text;html=1;strokeColor=none;fillColor=none;align=center;verticalAlign=middle;whiteSpace=wrap;rounded=0;fontSize=8;" vertex="1" parent="1">
          <mxGeometry x="580" y="160" width="30" height="10" as="geometry" />
        </mxCell>
        <mxCell id="u0zbnlWYYss0fcdmE5Vc-134" value="clusters" style="text;html=1;strokeColor=none;fillColor=none;align=center;verticalAlign=middle;whiteSpace=wrap;rounded=0;fontSize=8;" vertex="1" parent="1">
          <mxGeometry x="580" y="190" width="30" height="10" as="geometry" />
        </mxCell>
        <mxCell id="u0zbnlWYYss0fcdmE5Vc-135" value="Link" style="whiteSpace=wrap;html=1;aspect=fixed;fontSize=10;" vertex="1" parent="1">
          <mxGeometry x="560" y="280" width="40" height="40" as="geometry" />
        </mxCell>
        <mxCell id="u0zbnlWYYss0fcdmE5Vc-136" value="" style="endArrow=classic;html=1;rounded=0;exitX=0.5;exitY=0;exitDx=0;exitDy=0;entryX=0.5;entryY=1;entryDx=0;entryDy=0;" edge="1" parent="1" source="u0zbnlWYYss0fcdmE5Vc-135" target="u0zbnlWYYss0fcdmE5Vc-129">
          <mxGeometry relative="1" as="geometry">
            <mxPoint x="670" y="280" as="sourcePoint" />
            <mxPoint x="670" y="240" as="targetPoint" />
          </mxGeometry>
        </mxCell>
        <mxCell id="u0zbnlWYYss0fcdmE5Vc-137" value="&lt;div&gt;&lt;font style=&quot;font-size: 6px;&quot;&gt;1&lt;/font&gt;&lt;/div&gt;" style="edgeLabel;resizable=0;html=1;align=left;verticalAlign=bottom;" connectable="0" vertex="1" parent="u0zbnlWYYss0fcdmE5Vc-136">
          <mxGeometry x="-1" relative="1" as="geometry">
            <mxPoint x="-10" as="offset" />
          </mxGeometry>
        </mxCell>
        <mxCell id="u0zbnlWYYss0fcdmE5Vc-138" value="âˆž" style="edgeLabel;resizable=0;html=1;align=right;verticalAlign=bottom;" connectable="0" vertex="1" parent="u0zbnlWYYss0fcdmE5Vc-136">
          <mxGeometry x="1" relative="1" as="geometry">
            <mxPoint x="-10" y="20" as="offset" />
          </mxGeometry>
        </mxCell>
        <mxCell id="u0zbnlWYYss0fcdmE5Vc-139" value="cluster" style="text;html=1;strokeColor=none;fillColor=none;align=center;verticalAlign=middle;whiteSpace=wrap;rounded=0;fontSize=8;" vertex="1" parent="1">
          <mxGeometry x="590" y="240" width="30" height="10" as="geometry" />
        </mxCell>
        <mxCell id="u0zbnlWYYss0fcdmE5Vc-140" value="links" style="text;html=1;strokeColor=none;fillColor=none;align=center;verticalAlign=middle;whiteSpace=wrap;rounded=0;fontSize=8;" vertex="1" parent="1">
          <mxGeometry x="580" y="270" width="30" height="10" as="geometry" />
        </mxCell>
        <mxCell id="u0zbnlWYYss0fcdmE5Vc-148" style="edgeStyle=orthogonalEdgeStyle;rounded=0;orthogonalLoop=1;jettySize=auto;html=1;entryX=0.5;entryY=1;entryDx=0;entryDy=0;exitX=1;exitY=0.5;exitDx=0;exitDy=0;dashed=1;" edge="1" parent="1" source="u0zbnlWYYss0fcdmE5Vc-141" target="u0zbnlWYYss0fcdmE5Vc-147">
          <mxGeometry relative="1" as="geometry">
            <Array as="points">
              <mxPoint x="700" y="380" />
            </Array>
          </mxGeometry>
        </mxCell>
        <mxCell id="u0zbnlWYYss0fcdmE5Vc-152" value="same" style="edgeLabel;html=1;align=center;verticalAlign=middle;resizable=0;points=[];" vertex="1" connectable="0" parent="u0zbnlWYYss0fcdmE5Vc-148">
          <mxGeometry x="-0.6036" y="-1" relative="1" as="geometry">
            <mxPoint x="2" y="-1" as="offset" />
          </mxGeometry>
        </mxCell>
        <mxCell id="u0zbnlWYYss0fcdmE5Vc-141" value="Bot" style="whiteSpace=wrap;html=1;aspect=fixed;fontSize=10;" vertex="1" parent="1">
          <mxGeometry x="560" y="360" width="40" height="40" as="geometry" />
        </mxCell>
        <mxCell id="u0zbnlWYYss0fcdmE5Vc-142" value="" style="endArrow=classic;html=1;rounded=0;entryX=0.5;entryY=0;entryDx=0;entryDy=0;exitX=0.5;exitY=1;exitDx=0;exitDy=0;" edge="1" parent="1" source="u0zbnlWYYss0fcdmE5Vc-135" target="u0zbnlWYYss0fcdmE5Vc-141">
          <mxGeometry relative="1" as="geometry">
            <mxPoint x="590" y="330" as="sourcePoint" />
            <mxPoint x="770" y="315" as="targetPoint" />
            <Array as="points" />
          </mxGeometry>
        </mxCell>
        <mxCell id="u0zbnlWYYss0fcdmE5Vc-143" value="&lt;div style=&quot;font-size: 10px;&quot;&gt;&lt;font style=&quot;font-size: 8px;&quot;&gt;1&lt;/font&gt;&lt;/div&gt;" style="edgeLabel;resizable=0;html=1;align=left;verticalAlign=bottom;" connectable="0" vertex="1" parent="u0zbnlWYYss0fcdmE5Vc-142">
          <mxGeometry x="-1" relative="1" as="geometry">
            <mxPoint x="-10" y="20" as="offset" />
          </mxGeometry>
        </mxCell>
        <mxCell id="u0zbnlWYYss0fcdmE5Vc-144" value="&lt;div style=&quot;font-size: 8px;&quot;&gt;1&lt;/div&gt;" style="edgeLabel;resizable=0;html=1;align=right;verticalAlign=bottom;fontSize=8;" connectable="0" vertex="1" parent="u0zbnlWYYss0fcdmE5Vc-142">
          <mxGeometry x="1" relative="1" as="geometry">
            <mxPoint x="-10" as="offset" />
          </mxGeometry>
        </mxCell>
        <mxCell id="u0zbnlWYYss0fcdmE5Vc-145" value="link" style="text;html=1;strokeColor=none;fillColor=none;align=center;verticalAlign=middle;whiteSpace=wrap;rounded=0;fontSize=8;" vertex="1" parent="1">
          <mxGeometry x="580" y="320" width="30" height="10" as="geometry" />
        </mxCell>
        <mxCell id="u0zbnlWYYss0fcdmE5Vc-146" value="bot" style="text;html=1;strokeColor=none;fillColor=none;align=center;verticalAlign=middle;whiteSpace=wrap;rounded=0;fontSize=8;" vertex="1" parent="1">
          <mxGeometry x="580" y="350" width="30" height="10" as="geometry" />
        </mxCell>
        <mxCell id="u0zbnlWYYss0fcdmE5Vc-147" value="(template) Bot" style="whiteSpace=wrap;html=1;aspect=fixed;fontSize=8;dashed=1;" vertex="1" parent="1">
          <mxGeometry x="680" y="200" width="40" height="40" as="geometry" />
        </mxCell>
        <mxCell id="u0zbnlWYYss0fcdmE5Vc-149" value="" style="endArrow=classic;html=1;rounded=0;entryX=0;entryY=0.5;entryDx=0;entryDy=0;exitX=1;exitY=0.5;exitDx=0;exitDy=0;" edge="1" parent="1" source="u0zbnlWYYss0fcdmE5Vc-129" target="u0zbnlWYYss0fcdmE5Vc-147">
          <mxGeometry relative="1" as="geometry">
            <mxPoint x="590" y="330" as="sourcePoint" />
            <mxPoint x="590" y="370" as="targetPoint" />
            <Array as="points" />
          </mxGeometry>
        </mxCell>
        <mxCell id="u0zbnlWYYss0fcdmE5Vc-150" value="&lt;div style=&quot;font-size: 10px;&quot;&gt;&lt;font style=&quot;font-size: 8px;&quot;&gt;1&lt;/font&gt;&lt;/div&gt;" style="edgeLabel;resizable=0;html=1;align=left;verticalAlign=bottom;" connectable="0" vertex="1" parent="u0zbnlWYYss0fcdmE5Vc-149">
          <mxGeometry x="-1" relative="1" as="geometry">
            <mxPoint x="-10" y="20" as="offset" />
          </mxGeometry>
        </mxCell>
        <mxCell id="u0zbnlWYYss0fcdmE5Vc-151" value="&lt;div style=&quot;font-size: 8px;&quot;&gt;1&lt;/div&gt;" style="edgeLabel;resizable=0;html=1;align=right;verticalAlign=bottom;fontSize=8;" connectable="0" vertex="1" parent="u0zbnlWYYss0fcdmE5Vc-149">
          <mxGeometry x="1" relative="1" as="geometry">
            <mxPoint x="-10" as="offset" />
          </mxGeometry>
        </mxCell>
        <mxCell id="u0zbnlWYYss0fcdmE5Vc-153" value="Strategy" style="whiteSpace=wrap;html=1;aspect=fixed;fontSize=10;" vertex="1" parent="1">
          <mxGeometry x="560" y="440" width="40" height="40" as="geometry" />
        </mxCell>
        <mxCell id="u0zbnlWYYss0fcdmE5Vc-154" value="" style="endArrow=classic;html=1;rounded=0;entryX=0.5;entryY=0;entryDx=0;entryDy=0;exitX=0.5;exitY=1;exitDx=0;exitDy=0;" edge="1" parent="1" source="u0zbnlWYYss0fcdmE5Vc-141" target="u0zbnlWYYss0fcdmE5Vc-153">
          <mxGeometry relative="1" as="geometry">
            <mxPoint x="630" y="405" as="sourcePoint" />
            <mxPoint x="630" y="445" as="targetPoint" />
            <Array as="points" />
          </mxGeometry>
        </mxCell>
        <mxCell id="u0zbnlWYYss0fcdmE5Vc-155" value="&lt;div style=&quot;font-size: 10px;&quot;&gt;&lt;font style=&quot;font-size: 8px;&quot;&gt;1&lt;/font&gt;&lt;/div&gt;" style="edgeLabel;resizable=0;html=1;align=left;verticalAlign=bottom;" connectable="0" vertex="1" parent="u0zbnlWYYss0fcdmE5Vc-154">
          <mxGeometry x="-1" relative="1" as="geometry">
            <mxPoint y="10" as="offset" />
          </mxGeometry>
        </mxCell>
        <mxCell id="u0zbnlWYYss0fcdmE5Vc-156" value="&lt;div style=&quot;font-size: 8px;&quot;&gt;1&lt;/div&gt;" style="edgeLabel;resizable=0;html=1;align=right;verticalAlign=bottom;fontSize=8;" connectable="0" vertex="1" parent="u0zbnlWYYss0fcdmE5Vc-154">
          <mxGeometry x="1" relative="1" as="geometry">
            <mxPoint x="10" y="-10" as="offset" />
          </mxGeometry>
        </mxCell>
        <mxCell id="u0zbnlWYYss0fcdmE5Vc-157" value="strategy" style="text;html=1;strokeColor=none;fillColor=none;align=center;verticalAlign=middle;whiteSpace=wrap;rounded=0;fontSize=8;" vertex="1" parent="1">
          <mxGeometry x="600" y="445" width="30" height="10" as="geometry" />
        </mxCell>
        <mxCell id="u0zbnlWYYss0fcdmE5Vc-158" value="bot" style="text;html=1;strokeColor=none;fillColor=none;align=center;verticalAlign=middle;whiteSpace=wrap;rounded=0;fontSize=8;" vertex="1" parent="1">
          <mxGeometry x="550" y="400" width="30" height="10" as="geometry" />
        </mxCell>
        <mxCell id="u0zbnlWYYss0fcdmE5Vc-159" value="Plugin" style="whiteSpace=wrap;html=1;aspect=fixed;fontSize=10;" vertex="1" parent="1">
          <mxGeometry x="680" y="415" width="40" height="40" as="geometry" />
        </mxCell>
        <mxCell id="u0zbnlWYYss0fcdmE5Vc-160" value="Architecture" style="whiteSpace=wrap;html=1;aspect=fixed;fontSize=7;" vertex="1" parent="1">
          <mxGeometry x="680" y="470" width="40" height="40" as="geometry" />
        </mxCell>
        <mxCell id="u0zbnlWYYss0fcdmE5Vc-161" value="Config" style="whiteSpace=wrap;html=1;aspect=fixed;fontSize=10;" vertex="1" parent="1">
          <mxGeometry x="680" y="530" width="40" height="40" as="geometry" />
        </mxCell>
        <mxCell id="u0zbnlWYYss0fcdmE5Vc-162" value="" style="endArrow=classic;html=1;rounded=0;exitX=0;exitY=0.25;exitDx=0;exitDy=0;" edge="1" parent="1" source="u0zbnlWYYss0fcdmE5Vc-159">
          <mxGeometry relative="1" as="geometry">
            <mxPoint x="670" y="310" as="sourcePoint" />
            <mxPoint x="600" y="440" as="targetPoint" />
            <Array as="points">
              <mxPoint x="620" y="425" />
              <mxPoint x="620" y="440" />
            </Array>
          </mxGeometry>
        </mxCell>
        <mxCell id="u0zbnlWYYss0fcdmE5Vc-163" value="&lt;div&gt;&lt;font style=&quot;font-size: 6px;&quot;&gt;1&lt;/font&gt;&lt;/div&gt;" style="edgeLabel;resizable=0;html=1;align=left;verticalAlign=bottom;" connectable="0" vertex="1" parent="u0zbnlWYYss0fcdmE5Vc-162">
          <mxGeometry x="-1" relative="1" as="geometry">
            <mxPoint x="-10" as="offset" />
          </mxGeometry>
        </mxCell>
        <mxCell id="u0zbnlWYYss0fcdmE5Vc-164" value="âˆž" style="edgeLabel;resizable=0;html=1;align=right;verticalAlign=bottom;" connectable="0" vertex="1" parent="u0zbnlWYYss0fcdmE5Vc-162">
          <mxGeometry x="1" relative="1" as="geometry">
            <mxPoint x="20" as="offset" />
          </mxGeometry>
        </mxCell>
        <mxCell id="u0zbnlWYYss0fcdmE5Vc-168" value="plugins" style="text;html=1;strokeColor=none;fillColor=none;align=center;verticalAlign=middle;whiteSpace=wrap;rounded=0;fontSize=8;" vertex="1" parent="1">
          <mxGeometry x="650" y="430" width="30" height="10" as="geometry" />
        </mxCell>
        <mxCell id="u0zbnlWYYss0fcdmE5Vc-172" value="" style="endArrow=classic;html=1;rounded=0;entryX=0.5;entryY=0;entryDx=0;entryDy=0;exitX=0;exitY=0.5;exitDx=0;exitDy=0;" edge="1" parent="1" source="u0zbnlWYYss0fcdmE5Vc-161">
          <mxGeometry relative="1" as="geometry">
            <mxPoint x="600" y="420" as="sourcePoint" />
            <mxPoint x="600" y="460" as="targetPoint" />
            <Array as="points">
              <mxPoint x="640" y="550" />
              <mxPoint x="640" y="460" />
            </Array>
          </mxGeometry>
        </mxCell>
        <mxCell id="u0zbnlWYYss0fcdmE5Vc-173" value="&lt;div style=&quot;font-size: 10px;&quot;&gt;&lt;font style=&quot;font-size: 8px;&quot;&gt;1&lt;/font&gt;&lt;/div&gt;" style="edgeLabel;resizable=0;html=1;align=left;verticalAlign=bottom;" connectable="0" vertex="1" parent="u0zbnlWYYss0fcdmE5Vc-172">
          <mxGeometry x="-1" relative="1" as="geometry">
            <mxPoint x="-10" y="20" as="offset" />
          </mxGeometry>
        </mxCell>
        <mxCell id="u0zbnlWYYss0fcdmE5Vc-174" value="&lt;div style=&quot;font-size: 8px;&quot;&gt;1&lt;/div&gt;" style="edgeLabel;resizable=0;html=1;align=right;verticalAlign=bottom;fontSize=8;" connectable="0" vertex="1" parent="u0zbnlWYYss0fcdmE5Vc-172">
          <mxGeometry x="1" relative="1" as="geometry">
            <mxPoint x="20" y="10" as="offset" />
          </mxGeometry>
        </mxCell>
        <mxCell id="u0zbnlWYYss0fcdmE5Vc-175" value="strategy" style="text;html=1;strokeColor=none;fillColor=none;align=center;verticalAlign=middle;whiteSpace=wrap;rounded=0;fontSize=8;" vertex="1" parent="1">
          <mxGeometry x="540" y="430" width="30" height="10" as="geometry" />
        </mxCell>
        <mxCell id="u0zbnlWYYss0fcdmE5Vc-177" value="architecture" style="text;html=1;strokeColor=none;fillColor=none;align=center;verticalAlign=middle;whiteSpace=wrap;rounded=0;fontSize=7;" vertex="1" parent="1">
          <mxGeometry x="640" y="480" width="40" height="10" as="geometry" />
        </mxCell>
        <mxCell id="u0zbnlWYYss0fcdmE5Vc-179" value="config" style="text;html=1;strokeColor=none;fillColor=none;align=center;verticalAlign=middle;whiteSpace=wrap;rounded=0;fontSize=8;" vertex="1" parent="1">
          <mxGeometry x="650" y="540" width="30" height="10" as="geometry" />
        </mxCell>
        <mxCell id="u0zbnlWYYss0fcdmE5Vc-180" value="" style="endArrow=classic;html=1;rounded=0;entryX=1;entryY=0.5;entryDx=0;entryDy=0;exitX=0;exitY=0.5;exitDx=0;exitDy=0;" edge="1" parent="1" source="u0zbnlWYYss0fcdmE5Vc-160" target="u0zbnlWYYss0fcdmE5Vc-153">
          <mxGeometry relative="1" as="geometry">
            <mxPoint x="690" y="560" as="sourcePoint" />
            <mxPoint x="610" y="470" as="targetPoint" />
            <Array as="points">
              <mxPoint x="640" y="490" />
              <mxPoint x="640" y="460" />
            </Array>
          </mxGeometry>
        </mxCell>
        <mxCell id="u0zbnlWYYss0fcdmE5Vc-181" value="&lt;div style=&quot;font-size: 10px;&quot;&gt;&lt;font style=&quot;font-size: 8px;&quot;&gt;1&lt;/font&gt;&lt;/div&gt;" style="edgeLabel;resizable=0;html=1;align=left;verticalAlign=bottom;" connectable="0" vertex="1" parent="u0zbnlWYYss0fcdmE5Vc-180">
          <mxGeometry x="-1" relative="1" as="geometry">
            <mxPoint x="-10" y="20" as="offset" />
          </mxGeometry>
        </mxCell>
        <mxCell id="u0zbnlWYYss0fcdmE5Vc-182" value="&lt;div style=&quot;font-size: 8px;&quot;&gt;1&lt;/div&gt;" style="edgeLabel;resizable=0;html=1;align=right;verticalAlign=bottom;fontSize=8;" connectable="0" vertex="1" parent="u0zbnlWYYss0fcdmE5Vc-180">
          <mxGeometry x="1" relative="1" as="geometry">
            <mxPoint x="20" y="10" as="offset" />
          </mxGeometry>
        </mxCell>
      </root>
    </mxGraphModel>
  </diagram>
</mxfile>
